<?xml version="1.0" encoding="UTF-8"?>
<svg width="28px" height="28px" viewBox="0 0 28 28" version="1.1" xmlns="http://www.w3.org/2000/svg" xmlns:xlink="http://www.w3.org/1999/xlink">
    <!-- Generator: Sketch 47.1 (45422) - http://www.bohemiancoding.com/sketch -->
    <title>中暑icon</title>
    <desc>Created with Sketch.</desc>
    <defs>
        <polygon id="path-1" points="2.91650384e-17 1.7738 2.91650384e-17 0.1708 2.4041 0.1708 2.4041 1.7738 0 1.7738"></polygon>
        <polygon id="path-3" points="2.91650384e-17 2.1781 2.91650384e-17 0.5751 2.4041 0.5751 2.4041 2.1781"></polygon>
        <polygon id="path-5" points="0.2017 0.966 10.6197 0.966 10.6197 21 0.2017 21"></polygon>
    </defs>
    <g id="Page-1" stroke="none" stroke-width="1" fill="none" fill-rule="evenodd">
        <g id="主页-无限行指数" transform="translate(-34.000000, -1237.000000)">
            <g id="指数" transform="translate(0.000000, 1224.000000)">
                <g id="中暑指数" transform="translate(19.000000, 13.000000)">
                    <g id="中暑icon" transform="translate(15.000000, 0.000000)">
                        <rect id="Rectangle-8" fill="#D8D8D8" opacity="0" x="0" y="0" width="28" height="28"></rect>
                        <path d="M17.2154,18.8259 C17.2154,20.3749 15.9604,21.6309 14.4104,21.6309 C12.8614,21.6309 11.6064,20.3749 11.6064,18.8259 C11.6064,17.2759 12.8614,16.0209 14.4104,16.0209 C15.9604,16.0209 17.2154,17.2759 17.2154,18.8259" id="Fill-1" fill="#FF8A65"></path>
                        <path d="M14.4107,17.6237 L14.4107,17.6237 C13.9707,17.6237 13.6097,17.2627 13.6097,16.8217 L13.6097,8.0067 C13.6097,7.5657 13.9707,7.2057 14.4107,7.2057 C14.8517,7.2057 15.2127,7.5657 15.2127,8.0067 L15.2127,16.8217 C15.2127,17.2627 14.8517,17.6237 14.4107,17.6237" id="Fill-3" fill="#FF8A65"></path>
                        <g id="Group-7" transform="translate(8.000000, 7.034500)">
                            <mask id="mask-2" fill="white">
                                <use xlink:href="#path-1"></use>
                            </mask>
                            <g id="Clip-6"></g>
                            <path d="M1.6031,1.7738 L0.8011,1.7738 C0.3611,1.7738 -0.0009,1.4138 -0.0009,0.9718 C-0.0009,0.5318 0.3611,0.1708 0.8011,0.1708 L1.6031,0.1708 C2.0431,0.1708 2.4041,0.5318 2.4041,0.9718 C2.4041,1.4138 2.0431,1.7738 1.6031,1.7738" id="Fill-5" fill="#FF8A65" mask="url(#mask-2)"></path>
                        </g>
                        <g id="Group-10" transform="translate(8.000000, 9.034500)">
                            <mask id="mask-4" fill="white">
                                <use xlink:href="#path-3"></use>
                            </mask>
                            <g id="Clip-9"></g>
                            <path d="M1.6031,2.1781 L0.8011,2.1781 C0.3611,2.1781 -0.0009,1.8181 -0.0009,1.3761 C-0.0009,0.9361 0.3611,0.5751 0.8011,0.5751 L1.6031,0.5751 C2.0431,0.5751 2.4041,0.9361 2.4041,1.3761 C2.4041,1.8181 2.0431,2.1781 1.6031,2.1781" id="Fill-8" fill="#FF8A65" mask="url(#mask-4)"></path>
                        </g>
                        <path d="M17.2154,18.8259 C17.2154,20.3749 15.9604,21.6309 14.4104,21.6309 C12.8614,21.6309 11.6064,20.3749 11.6064,18.8259 C11.6064,17.2759 12.8614,16.0209 14.4104,16.0209 C15.9604,16.0209 17.2154,17.2759 17.2154,18.8259" id="Fill-11" fill="#FF8A65"></path>
                        <path d="M14.4107,17.6237 L14.4107,17.6237 C13.9707,17.6237 13.6097,17.2627 13.6097,16.8217 L13.6097,8.0067 C13.6097,7.5657 13.9707,7.2057 14.4107,7.2057 C14.8517,7.2057 15.2127,7.5657 15.2127,8.0067 L15.2127,16.8217 C15.2127,17.2627 14.8517,17.6237 14.4107,17.6237" id="Fill-13" fill="#FF8A65"></path>
                        <g id="Group-17" transform="translate(9.000000, 3.034500)">
                            <mask id="mask-6" fill="white">
                                <use xlink:href="#path-5"></use>
                            </mask>
                            <g id="Clip-16"></g>
                            <path d="M5.4107,19.3968 C3.4197,19.3968 1.8057,17.7828 1.8057,15.7918 C1.8057,14.3758 2.6217,13.1548 3.8077,12.5638 L3.8077,4.1708 C3.8077,3.2898 4.5297,2.5688 5.4107,2.5688 C6.2927,2.5688 7.0147,3.2898 7.0147,4.1708 L7.0147,12.5638 C8.1997,13.1548 9.0167,14.3758 9.0167,15.7918 C9.0167,17.7828 7.4027,19.3968 5.4107,19.3968 M8.6167,11.6908 L8.6167,4.1708 C8.6167,2.4078 7.1747,0.9648 5.4107,0.9648 C3.6477,0.9648 2.2057,2.4078 2.2057,4.1708 L2.2057,11.6908 C0.9877,12.6438 0.2017,14.1248 0.2017,15.7918 C0.2017,18.6678 2.5337,21.0008 5.4107,21.0008 C8.2877,21.0008 10.6197,18.6678 10.6197,15.7918 C10.6197,14.1248 9.8347,12.6438 8.6167,11.6908" id="Fill-15" fill="#FF8A65" mask="url(#mask-6)"></path>
                        </g>
                    </g>
                </g>
            </g>
        </g>
    </g>
</svg>